Coordinates
version=1
nRows=9
nColumns=24
inDegrees=yes

Units are S.I. units (second, meters, Newtons, ...)
Angles are in degrees.

endheader
time	pelvis_tilt	pelvis_list	pelvis_rotation	pelvis_tx	pelvis_ty	pelvis_tz	hip_flexion_r	hip_adduction_r	hip_rotation_r	knee_angle_r	ankle_angle_r	subtalar_angle_r	mtp_angle_r	hip_flexion_l	hip_adduction_l	hip_rotation_l	knee_angle_l	ankle_angle_l	subtalar_angle_l	mtp_angle_l	lumbar_extension	lumbar_bending	lumbar_rotation
      1.59116667	      4.16036196	      4.85583813	     -5.59273404	      0.45318647	      1.08679969	      0.30424103	     10.74561078	     -7.12501119	      3.05956142	    -51.80432490	      1.59919335	    -13.63687827	     11.81916249	      0.75341153	     11.15944630	     -7.51589652	     -6.09062211	     -2.48735208	     -7.74674522	     -0.27922399	      0.54590127	     -2.10863562	      2.31153764
      1.59533333	      4.15739807	      4.98411061	     -5.55035959	      0.45764324	      1.08703274	      0.30429716	     11.24523823	     -7.17098488	      3.26399610	    -51.39589296	      1.93409297	    -14.05881469	     11.69775051	      0.39557370	     11.34418911	     -7.40548721	     -5.87522756	     -2.40407316	     -7.76584280	     -0.34580930	      0.56025987	     -2.27769017	      2.25919349
      1.59950000	      4.12622632	      5.04605468	     -5.47463517	      0.46215263	      1.08728507	      0.30455252	     11.72670480	     -7.11501787	      3.48522309	    -50.89699667	      2.07484006	    -14.22707883	     11.64753122	      0.05351965	     11.42657597	     -7.29781232	     -5.66911967	     -2.37259852	     -7.75528640	     -0.37300279	      0.50743883	     -2.35090961	      2.23029092
      1.60366667	      4.09841074	      5.15478142	     -5.43313687	      0.46655301	      1.08744832	      0.30470289	     12.23833656	     -7.12152348	      3.69133921	    -50.43207037	      2.40255229	    -14.79478319	     11.44579588	     -0.27885694	     11.58067927	     -7.20969720	     -5.44974421	     -2.28389225	     -7.87536370	     -0.48845973	      0.54175744	     -2.54457530	      2.14108628
      1.60783333	      3.92561773	      5.25685892	     -5.33499186	      0.47113212	      1.08743788	      0.30476319	     12.86962476	     -7.11735700	      3.86032074	    -49.89378465	      2.22053231	    -15.30654087	     10.18443148	     -0.48541115	     11.71486400	     -6.96184918	     -5.19919989	     -2.39493438	     -8.11152934	     -1.24180060	      0.82534286	     -2.65480074	      1.77185764
      1.61200000	      3.95096265	      5.36302493	     -5.32525808	      0.47545546	      1.08762022	      0.30493839	     13.31787930	     -7.12282491	      4.11163378	    -49.38340232	      2.53735954	    -15.40231109	     10.07768340	     -0.88769591	     11.87589863	     -6.84107598	     -4.94857619	     -2.28697553	     -8.07283001	     -1.30263744	      0.71828969	     -2.78083419	      1.79546812
      1.61616667	      3.94607384	      5.43314468	     -5.28407430	      0.47988853	      1.08778495	      0.30514654	     13.75940747	     -7.08227830	      4.33244295	    -48.81126552	      2.71726394	    -15.51702846	      9.98017423	     -1.26994428	     11.98660631	     -6.73250121	     -4.69833892	     -2.22948363	     -8.07856036	     -1.35977198	      0.67647201	     -2.86679552	      1.80428501
      1.62033333	      3.91440672	      5.49301157	     -5.22043249	      0.48427281	      1.08789344	      0.30541492	     14.21513220	     -7.02063544	      4.54600738	    -48.19928970	      2.82096527	    -15.59830686	      9.93434617	     -1.61619903	     12.07557452	     -6.62787172	     -4.46155326	     -2.19724705	     -8.08230633	     -1.38637704	      0.61988086	     -2.94179793	      1.80253409
      1.62450000	      3.91236983	      5.59070675	     -5.21684452	      0.48866652	      1.08796425	      0.30557300	     14.66330749	     -7.01452673	      4.77334678	    -47.60897939	      2.96390355	    -15.78349170	      9.83160776	     -2.00952157	     12.23339196	     -6.47080650	     -4.17478447	     -2.14017265	     -8.16703174	     -1.44890100	      0.64768911	     -3.05797821	      1.80130429
